# xmcd CD database file
#
# Track frame offsets:
#	150
#	13882
#	32220
#	41737
#	59862
#	78972
#	91707
#	102575
#	114942
#	133297
#	147850
#	162267
#	175975
#	190627
#	201695
#	214695
#	227930
#
# Disc length: 3273 seconds
#
# Revision: 2
# Processed by: cddbd v1.5PL3 Copyright (c) Steve Scherf et al.
# Submitted via: CDex 1.51
#
DISCID=fb0cc711
DTITLE=Pedro Bento and Zé da Estrada - Do Jeito Que O Povo Gosta
DYEAR=2002
DGENRE=Country
TTITLE0=Quando se ama em Goiás
TTITLE1=Saco cheio
TTITLE2=De gole em gole
TTITLE3=Cavaleiros da Fé
TTITLE4=A visão de um Preto Velho
TTITLE5=O Mestre
TTITLE6=Tô garrado na Manuela
TTITLE7=Amarga paixão
TTITLE8=Museu de Cristo
TTITLE9=Tá prá lá de bom
TTITLE10=Bom Jesus do Paraná
TTITLE11=Chifrude né
TTITLE12=Pé de Primavera
TTITLE13=Gavião Penacho
TTITLE14=Poeta boêmio
TTITLE15=Hoje tem festa
TTITLE16=Mágoa de boiadeiro - Bonus Track - Part.Esp. Daniel
EXTD=YEAR: 2002
EXTT0=
EXTT1=
EXTT2=
EXTT3=
EXTT4=
EXTT5=
EXTT6=
EXTT7=
EXTT8=
EXTT9=
EXTT10=
EXTT11=
EXTT12=
EXTT13=
EXTT14=
EXTT15=
EXTT16=
PLAYORDER=
